<svg viewBox="-1 -1 48 48" xmlns="http://www.w3.org/2000/svg" height="48" width="48"><path d="M39.29166666666667 12.458333333333334a1.9166666666666667 1.9166666666666667 0 0 1 -1.9166666666666667 1.9166666666666667h-28.75a1.9166666666666667 1.9166666666666667 0 0 1 -1.9166666666666667 -1.9166666666666667v-1.9166666666666667a1.9166666666666667 1.9166666666666667 0 0 1 1.9166666666666667 -1.9166666666666667h28.75a1.9166666666666667 1.9166666666666667 0 0 1 1.9166666666666667 1.9166666666666667Z" fill="#00000" stroke="#000000" stroke-linecap="round" stroke-linejoin="round" stroke-width="2"></path><path d="M39.29166666666667 23.958333333333336a1.9166666666666667 1.9166666666666667 0 0 1 -1.9166666666666667 1.9166666666666667h-28.75a1.9166666666666667 1.9166666666666667 0 0 1 -1.9166666666666667 -1.9166666666666667v-1.9166666666666667a1.9166666666666667 1.9166666666666667 0 0 1 1.9166666666666667 -1.9166666666666667h28.75a1.9166666666666667 1.9166666666666667 0 0 1 1.9166666666666667 1.9166666666666667Z" fill="#00000" stroke="#000000" stroke-linecap="round" stroke-linejoin="round" stroke-width="2"></path><path d="M39.29166666666667 35.458333333333336a1.9166666666666667 1.9166666666666667 0 0 1 -1.9166666666666667 1.9166666666666667h-28.75a1.9166666666666667 1.9166666666666667 0 0 1 -1.9166666666666667 -1.9166666666666667v-1.9166666666666667a1.9166666666666667 1.9166666666666667 0 0 1 1.9166666666666667 -1.9166666666666667h28.75a1.9166666666666667 1.9166666666666667 0 0 1 1.9166666666666667 1.9166666666666667Z" fill="#00000" stroke="#000000" stroke-linecap="round" stroke-linejoin="round" stroke-width="2"></path></svg>