<svg id="Light" xmlns="http://www.w3.org/2000/svg" viewBox="-1 -1 48 48" height="48" width="48"><defs></defs><title>weather-night-clear</title><path d="m30.1875 3.354166666666667 -2.091083333333333 5.573666666666667L22.520833333333336 11.020833333333334l5.575583333333333 2.089166666666667 2.091083333333333 5.577500000000001 2.091083333333333 -5.577500000000001 5.575583333333333 -2.089166666666667 -5.575583333333333 -2.0930000000000004L30.1875 3.354166666666667" fill="#adadad" stroke="#adadad" stroke-linecap="round" stroke-linejoin="round" stroke-width="2"></path><path d="m39.770833333333336 18.6875 -1.0445833333333334 2.7868333333333335 -2.7887500000000003 1.0465000000000002 2.7887500000000003 1.0445833333333334 1.0445833333333334 2.7887500000000003 1.0445833333333334 -2.7887500000000003 2.7887500000000003 -1.0445833333333334 -2.7887500000000003 -1.0465000000000002 -1.0445833333333334 -2.7868333333333335" fill="#adadad" stroke="#adadad" stroke-linecap="round" stroke-linejoin="round" stroke-width="2"></path><path d="M34.020833333333336 31.145833333333336A16.291666666666668 16.291666666666668 0 0 1 18.44408333333333 10.074000000000002a16.291666666666668 16.291666666666668 0 1 0 15.81825 21.058416666666666c-0.0805 0.0019166666666666668 -0.15908333333333335 0.013416666666666667 -0.24150000000000002 0.013416666666666667Z" fill="#adadad" stroke="#adadad" stroke-linecap="round" stroke-linejoin="round" stroke-width="2"></path></svg>