<svg id="Light" xmlns="http://www.w3.org/2000/svg" viewBox="-1 -1 48 48" height="48" width="48"><defs></defs><title>weather-sun</title><path d="M36.41666666666667 23a13.416666666666668 13.416666666666668 0 0 0 -13.416666666666668 -13.416666666666668h0a13.416666666666668 13.416666666666668 0 0 0 -13.416666666666668 13.416666666666668h0a13.416666666666668 13.416666666666668 0 0 0 13.416666666666668 13.416666666666668h0a13.416666666666668 13.416666666666668 0 0 0 13.416666666666668 -13.416666666666668Z" fill="#FFCC33" stroke="#FFCC33" stroke-linecap="round" stroke-linejoin="round" stroke-width="2"></path><path d="m23 40.25 0 3.8333333333333335" fill="#FFCC33" stroke="#FFCC33" stroke-linecap="round" stroke-linejoin="round" stroke-width="2"></path><path d="m40.25 23 3.8333333333333335 0" fill="#FFCC33" stroke="#FFCC33" stroke-linecap="round" stroke-linejoin="round" stroke-width="2"></path><path d="m23 5.75 0 -3.8333333333333335" fill="#FFCC33" stroke="#FFCC33" stroke-linecap="round" stroke-linejoin="round" stroke-width="2"></path><path d="m5.75 23 -3.8333333333333335 0" fill="#FFCC33" stroke="#FFCC33" stroke-linecap="round" stroke-linejoin="round" stroke-width="2"></path><path d="m10.80425 35.19766666666667 -2.7120833333333336 2.7120833333333336" fill="#FFCC33" stroke="#FFCC33" stroke-linecap="round" stroke-linejoin="round" stroke-width="2"></path><path d="m35.19766666666667 35.19766666666667 2.710166666666667 2.710166666666667" fill="#FFCC33" stroke="#FFCC33" stroke-linecap="round" stroke-linejoin="round" stroke-width="2"></path><path d="m35.19958333333333 10.80425 2.710166666666667 -2.710166666666667" fill="#FFCC33" stroke="#FFCC33" stroke-linecap="round" stroke-linejoin="round" stroke-width="2"></path><path d="M10.802333333333333 10.80425 8.092166666666667 8.094083333333334" fill="#FFCC33" stroke="#FFCC33" stroke-linecap="round" stroke-linejoin="round" stroke-width="2"></path></svg>